<svg width="61" height="81" viewBox="0 0 61 81" fill="none" xmlns="http://www.w3.org/2000/svg">
<g clip-path="">
<path d="M43.441 10.4643H17.9837V38.4228H43.441V10.4643Z" fill="#212121"/>
<path d="M43.3536 10.9264V38.0021H18.0841L12.8691 43.5977H48.5747V5.33081L43.3536 10.9264Z" fill="#9C0315"/>
<path d="M12.8353 5.29706V43.5964H12.8656L18.0806 38.0008H18.0503V10.8927H43.3501V10.9251L48.5712 5.32952V5.29706H12.8353Z" fill="#730315"/>
<path d="M35.2525 28.3761L33.7546 29.933V34.0734H32.1388V21.8206H33.7546V27.8796L39.1993 21.8206H41.1517L36.3297 27.2317L41.5304 34.0734H39.5948L35.2525 28.3761Z" fill="white"/>
<path d="M30.7033 60.9934L19.613 49.4257H12.8656L30.7033 68.2249V60.9934Z" fill="#9C0315"/>
<path d="M41.7935 49.4257L30.7396 61.0324L30.7033 60.9934V68.2249L30.7396 68.2638L48.547 49.4257H41.7935Z" fill="#730315"/>
</g>
<defs>
<clipPath id="clip0">
<rect x="0.370178" y="0.331177" width="60.6298" height="80.6688" fill="white"/>
</clipPath>
</defs>
</svg>
