<svg width="50" height="75" viewBox="0 0 50 75" fill="none" xmlns="http://www.w3.org/2000/svg">
<path d="M37.25 12.8425L42.5 7.60004H7.5V42.55L12.75 37.3075V12.8425H37.25Z" fill="#E5BB0F"/>
<path d="M37.25 12.8425L42.5 7.60004V42.55H7.5L12.75 37.3075H37.25V12.8425Z" fill="white" stroke="black" stroke-width="0.025" stroke-miterlimit="10"/>
<path d="M37.25 12.8425H12.75V37.3075H37.25V12.8425Z" fill="#141414"/>
<path d="M26.1854 32.085H32.0383C32.5799 32.085 33.2419 32.0151 33.7234 31.2811C34.25 30.4947 34.235 29.2191 34.235 29.1142C34.235 28.5026 34.1146 27.7162 33.588 27.1395C33.2269 26.7376 32.6852 26.493 32.0533 26.2308L27.9608 24.5532C26.9527 24.1338 26.8925 23.3824 26.8925 22.6135C26.8925 22.1941 26.8925 21.565 27.2085 21.1631C27.4643 20.8485 27.9307 20.6913 28.3069 20.6913H33.7385V19.8525H28.3971C27.5696 19.8525 27.028 20.167 26.727 20.4641C26.0801 21.0932 26.0199 21.9495 26.0199 22.5786C26.0199 23.2426 26.1102 23.9766 26.5465 24.5532C26.8324 24.9377 27.3138 25.2522 27.8404 25.4619L32.0383 27.1395C33.2119 27.6114 33.3623 28.3453 33.3623 29.1492C33.3623 30.8617 32.7605 31.2462 32.1285 31.2462H26.1854V32.085Z" fill="white"/>
<path d="M25.0875 57.462L14.2635 47.05H7.67505L25.0875 63.974V57.462Z" fill="#E5BB0F"/>
<path d="M35.9114 47.05L25.1239 57.497L25.0874 57.462V63.974L25.1239 64.0095L42.4999 47.05H35.9114Z" fill="#89710C"/>
</svg>
